<svg width="100" height="100" viewBox="0 0 100 100" fill="none" xmlns="http://www.w3.org/2000/svg">
<mask id="path-1-inside-1_3_11" fill="white">
<path d="M0 30C0 13.4315 13.4315 0 30 0H70C86.5685 0 100 13.4315 100 30V70C100 86.5685 86.5685 100 70 100H30C13.4315 100 0 86.5685 0 70V30Z"/>
</mask>
<path d="M0 30C0 13.4315 13.4315 0 30 0H70C86.5685 0 100 13.4315 100 30V70C100 86.5685 86.5685 100 70 100H30C13.4315 100 0 86.5685 0 70V30Z" fill="url(#paint0_linear_3_11)"/>
<path d="M0 30C0 12.8792 13.8792 -1 31 -1H69C86.1208 -1 100 12.8792 100 30C100 13.9837 86.5685 1 70 1H30C13.4315 1 0 13.9837 0 30ZM100 100H0H100ZM0 100V0V100ZM100 0V100V0Z" fill="url(#paint1_linear_3_11)" fill-opacity="0.37" mask="url(#path-1-inside-1_3_11)"/>
<g filter="url(#filter0_d_3_11)">
<path d="M25 50C25 47.2386 27.2386 45 30 45H70C72.7614 45 75 47.2386 75 50V66C75 71.5228 70.5228 76 65 76H35C29.4772 76 25 71.5228 25 66V50Z" fill="url(#paint2_linear_3_11)" shape-rendering="crispEdges"/>
</g>
<g filter="url(#filter1_d_3_11)">
<path d="M25 34C25 28.4772 29.4772 24 35 24H65C70.5228 24 75 28.4772 75 34V35C75 37.7614 72.7614 40 70 40H30C27.2386 40 25 37.7614 25 35V34Z" fill="url(#paint3_linear_3_11)" shape-rendering="crispEdges"/>
</g>
<defs>
<filter id="filter0_d_3_11" x="20" y="40" width="60" height="41" filterUnits="userSpaceOnUse" color-interpolation-filters="sRGB">
<feFlood flood-opacity="0" result="BackgroundImageFix"/>
<feColorMatrix in="SourceAlpha" type="matrix" values="0 0 0 0 0 0 0 0 0 0 0 0 0 0 0 0 0 0 127 0" result="hardAlpha"/>
<feMorphology radius="1" operator="dilate" in="SourceAlpha" result="effect1_dropShadow_3_11"/>
<feOffset/>
<feGaussianBlur stdDeviation="2"/>
<feComposite in2="hardAlpha" operator="out"/>
<feColorMatrix type="matrix" values="0 0 0 0 0 0 0 0 0 0 0 0 0 0 0 0 0 0 0.25 0"/>
<feBlend mode="normal" in2="BackgroundImageFix" result="effect1_dropShadow_3_11"/>
<feBlend mode="normal" in="SourceGraphic" in2="effect1_dropShadow_3_11" result="shape"/>
</filter>
<filter id="filter1_d_3_11" x="21" y="24" width="58" height="24" filterUnits="userSpaceOnUse" color-interpolation-filters="sRGB">
<feFlood flood-opacity="0" result="BackgroundImageFix"/>
<feColorMatrix in="SourceAlpha" type="matrix" values="0 0 0 0 0 0 0 0 0 0 0 0 0 0 0 0 0 0 127 0" result="hardAlpha"/>
<feOffset dy="4"/>
<feGaussianBlur stdDeviation="2"/>
<feComposite in2="hardAlpha" operator="out"/>
<feColorMatrix type="matrix" values="0 0 0 0 0 0 0 0 0 0 0 0 0 0 0 0 0 0 0.25 0"/>
<feBlend mode="normal" in2="BackgroundImageFix" result="effect1_dropShadow_3_11"/>
<feBlend mode="normal" in="SourceGraphic" in2="effect1_dropShadow_3_11" result="shape"/>
</filter>
<linearGradient id="paint0_linear_3_11" x1="81.5" y1="89.5" x2="7.5" y2="4.5" gradientUnits="userSpaceOnUse">
<stop stop-color="#161618"/>
<stop offset="0.696818" stop-color="#191919"/>
<stop offset="1.0001" stop-color="#232328"/>
</linearGradient>
<linearGradient id="paint1_linear_3_11" x1="100" y1="50" x2="0" y2="50" gradientUnits="userSpaceOnUse">
<stop stop-color="white" stop-opacity="0"/>
<stop offset="0.3" stop-color="#B2B2B2"/>
<stop offset="0.4" stop-color="#E2E2E2"/>
<stop offset="1" stop-color="#999999" stop-opacity="0"/>
</linearGradient>
<linearGradient id="paint2_linear_3_11" x1="50" y1="45" x2="50" y2="76" gradientUnits="userSpaceOnUse">
<stop stop-color="#D9D9D9" stop-opacity="0.9"/>
<stop offset="1" stop-color="#D9D9D9" stop-opacity="0.7"/>
</linearGradient>
<linearGradient id="paint3_linear_3_11" x1="50" y1="24" x2="50" y2="40" gradientUnits="userSpaceOnUse">
<stop stop-color="#D9D9D9"/>
<stop offset="1" stop-color="#D9D9D9" stop-opacity="0.9"/>
</linearGradient>
</defs>
</svg>
