<svg width="287" height="47" viewBox="0 0 287 47" fill="none" xmlns="http://www.w3.org/2000/svg">
<path d="M40.08 3.12L36.752 12.272C35.0027 11.632 33.1253 11.1413 31.12 10.8C29.1573 10.4587 27.1093 10.288 24.976 10.288C23.4827 10.288 22.2453 10.4373 21.264 10.736C20.3253 11.0347 19.6427 11.4827 19.216 12.08C18.7893 12.6347 18.576 13.296 18.576 14.064C18.576 14.7467 18.8533 15.344 19.408 15.856C19.9627 16.3253 20.688 16.7947 21.584 17.264C22.5227 17.6907 23.5467 18.1173 24.656 18.544C25.808 18.9707 26.9813 19.4613 28.176 20.016C29.4133 20.528 30.608 21.1253 31.76 21.808C32.912 22.448 33.936 23.2587 34.832 24.24C35.7707 25.1787 36.5173 26.288 37.072 27.568C37.6267 28.8053 37.904 30.2773 37.904 31.984C37.904 34.928 37.2 37.5093 35.792 39.728C34.384 41.904 32.1867 43.6107 29.2 44.848C26.2133 46.0427 22.3733 46.64 17.68 46.64C14.3093 46.64 11.1733 46.3627 8.272 45.808C5.37067 45.2533 2.74667 44.4853 0.4 43.504L3.856 34.096C5.60533 34.736 7.29067 35.2693 8.912 35.696C10.576 36.08 12.2187 36.3787 13.84 36.592C15.4613 36.8053 17.0613 36.912 18.64 36.912C20.176 36.912 21.392 36.7627 22.288 36.464C23.2267 36.1653 23.888 35.7387 24.272 35.184C24.6987 34.6293 24.912 34.0107 24.912 33.328C24.912 32.6027 24.6347 31.984 24.08 31.472C23.568 30.9173 22.8427 30.4267 21.904 30C20.9653 29.5733 19.92 29.168 18.768 28.784C17.616 28.3573 16.4213 27.888 15.184 27.376C13.9893 26.864 12.816 26.288 11.664 25.648C10.512 24.9653 9.46667 24.176 8.528 23.28C7.58933 22.3413 6.84267 21.232 6.288 19.952C5.776 18.672 5.52 17.1787 5.52 15.472C5.52 12.4 6.24533 9.75467 7.696 7.536C9.14667 5.31733 11.3867 3.61066 14.416 2.416C17.4453 1.17866 21.2853 0.559998 25.936 0.559998C27.6853 0.559998 29.3493 0.666664 30.928 0.879997C32.5493 1.05066 34.128 1.328 35.664 1.712C37.2 2.096 38.672 2.56533 40.08 3.12ZM39.8185 46L46.9865 1.2H78.2825L76.6185 11.312H57.3545L56.1385 18.864H73.8665L72.3305 28.144H54.6025L53.3865 36.016H73.7385L72.0745 46H39.8185ZM76.6295 46L83.8615 1.2H95.9575L90.4535 35.632H108.566L106.838 46H76.6295ZM111.067 46L118.299 1.2H149.339L147.611 11.568H128.667L127.067 21.744H143.387L141.723 31.984H125.467L123.227 46H111.067ZM146.317 46L153.549 1.2H165.581L170.957 21.808L182.861 1.2H195.789L188.557 46H177.485L181.709 19.568L171.469 37.168H166.029L161.613 19.632L157.517 46H146.317ZM191.94 46L211.588 0.879997H227.14L232.772 46H219.652L219.076 38.64H207.94L205.124 46H191.94ZM211.588 28.976H218.628L217.924 10.544L211.588 28.976ZM236.13 46L243.362 1.2H255.458L248.29 46H236.13ZM254.442 46L261.674 1.2H273.77L268.266 35.632H286.378L284.65 46H254.442Z" fill="#F2F2F2"/>
</svg>
