<svg width="81" height="93" viewBox="0 0 81 93" fill="none" xmlns="http://www.w3.org/2000/svg">
<path d="M80.16 5.24L73.504 23.544C70.0053 22.264 66.2507 21.2827 62.24 20.6C58.3147 19.9173 54.2187 19.576 49.952 19.576C46.9653 19.576 44.4907 19.8747 42.528 20.472C40.6507 21.0693 39.2853 21.9653 38.432 23.16C37.5787 24.2693 37.152 25.592 37.152 27.128C37.152 28.4933 37.7067 29.688 38.816 30.712C39.9253 31.6507 41.376 32.5893 43.168 33.528C45.0453 34.3813 47.0933 35.2347 49.312 36.088C51.616 36.9413 53.9627 37.9227 56.352 39.032C58.8267 40.056 61.216 41.2507 63.52 42.616C65.824 43.896 67.872 45.5173 69.664 47.48C71.5413 49.3573 73.0347 51.576 74.144 54.136C75.2533 56.6107 75.808 59.5547 75.808 62.968C75.808 68.856 74.4 74.0187 71.584 78.456C68.768 82.808 64.3733 86.2213 58.4 88.696C52.4267 91.0853 44.7467 92.28 35.36 92.28C28.6187 92.28 22.3467 91.7253 16.544 90.616C10.7413 89.5067 5.49333 87.9707 0.8 86.008L7.712 67.192C11.2107 68.472 14.5813 69.5387 17.824 70.392C21.152 71.16 24.4373 71.7573 27.68 72.184C30.9227 72.6107 34.1227 72.824 37.28 72.824C40.352 72.824 42.784 72.5253 44.576 71.928C46.4533 71.3307 47.776 70.4773 48.544 69.368C49.3973 68.2587 49.824 67.0213 49.824 65.656C49.824 64.2053 49.2693 62.968 48.16 61.944C47.136 60.8347 45.6853 59.8533 43.808 59C41.9307 58.1467 39.84 57.336 37.536 56.568C35.232 55.7147 32.8427 54.776 30.368 53.752C27.9787 52.728 25.632 51.576 23.328 50.296C21.024 48.9307 18.9333 47.352 17.056 45.56C15.1787 43.6827 13.6853 41.464 12.576 38.904C11.552 36.344 11.04 33.3573 11.04 29.944C11.04 23.8 12.4907 18.5093 15.392 14.072C18.2933 9.63466 22.7733 6.22133 28.832 3.83199C34.8907 1.35733 42.5707 0.119995 51.872 0.119995C55.3707 0.119995 58.6987 0.333328 61.856 0.759995C65.0987 1.10133 68.256 1.656 71.328 2.424C74.4 3.192 77.344 4.13066 80.16 5.24Z" fill="#1A316B"/>
</svg>
